<mxfile>
    <diagram id="6nmVOqlGoc7F-XEukehm" name="Page-1">
        <mxGraphModel dx="3138" dy="2398" grid="1" gridSize="10" guides="1" tooltips="1" connect="1" arrows="1" fold="1" page="1" pageScale="1" pageWidth="827" pageHeight="1169" math="0" shadow="0">
            <root>
                <mxCell id="0"/>
                <mxCell id="1" parent="0"/>
                <mxCell id="iHAO1y8B95vVcQq13k_9-2" value="" style="rounded=0;whiteSpace=wrap;html=1;" parent="1" vertex="1">
                    <mxGeometry x="716" y="855" width="140" height="80" as="geometry"/>
                </mxCell>
                <mxCell id="l9egmBFNPaogetp_7aR3-1" value="Car" style="rounded=0;whiteSpace=wrap;html=1;" parent="1" vertex="1">
                    <mxGeometry x="736" y="110" width="120" height="60" as="geometry"/>
                </mxCell>
                <mxCell id="l9egmBFNPaogetp_7aR3-2" value="&lt;u&gt;car_id&lt;/u&gt;" style="ellipse;whiteSpace=wrap;html=1;" parent="1" vertex="1">
                    <mxGeometry x="786" y="-110" width="120" height="80" as="geometry"/>
                </mxCell>
                <mxCell id="l9egmBFNPaogetp_7aR3-3" value="" style="endArrow=none;html=1;entryX=0.75;entryY=0;entryDx=0;entryDy=0;exitX=0.5;exitY=1;exitDx=0;exitDy=0;" parent="1" source="l9egmBFNPaogetp_7aR3-2" target="l9egmBFNPaogetp_7aR3-1" edge="1">
                    <mxGeometry width="50" height="50" relative="1" as="geometry">
                        <mxPoint x="390" y="420" as="sourcePoint"/>
                        <mxPoint x="440" y="370" as="targetPoint"/>
                    </mxGeometry>
                </mxCell>
                <mxCell id="l9egmBFNPaogetp_7aR3-4" value="Brand" style="ellipse;whiteSpace=wrap;html=1;" parent="1" vertex="1">
                    <mxGeometry x="660" y="-120" width="120" height="80" as="geometry"/>
                </mxCell>
                <mxCell id="l9egmBFNPaogetp_7aR3-5" value="" style="endArrow=none;html=1;entryX=0.5;entryY=0;entryDx=0;entryDy=0;exitX=1;exitY=1;exitDx=0;exitDy=0;" parent="1" source="l9egmBFNPaogetp_7aR3-4" target="l9egmBFNPaogetp_7aR3-1" edge="1">
                    <mxGeometry width="50" height="50" relative="1" as="geometry">
                        <mxPoint x="250" y="420" as="sourcePoint"/>
                        <mxPoint x="600" y="190" as="targetPoint"/>
                    </mxGeometry>
                </mxCell>
                <mxCell id="l9egmBFNPaogetp_7aR3-6" value="license_class" style="ellipse;whiteSpace=wrap;html=1;" parent="1" vertex="1">
                    <mxGeometry x="926" y="-80" width="120" height="80" as="geometry"/>
                </mxCell>
                <mxCell id="l9egmBFNPaogetp_7aR3-7" value="is available" style="ellipse;whiteSpace=wrap;html=1;" parent="1" vertex="1">
                    <mxGeometry x="956" y="210" width="120" height="80" as="geometry"/>
                </mxCell>
                <mxCell id="l9egmBFNPaogetp_7aR3-8" value="mileage" style="ellipse;whiteSpace=wrap;html=1;" parent="1" vertex="1">
                    <mxGeometry x="976" y="10" width="120" height="80" as="geometry"/>
                </mxCell>
                <mxCell id="l9egmBFNPaogetp_7aR3-9" value="year" style="ellipse;whiteSpace=wrap;html=1;" parent="1" vertex="1">
                    <mxGeometry x="976" y="100" width="120" height="80" as="geometry"/>
                </mxCell>
                <mxCell id="l9egmBFNPaogetp_7aR3-13" value="" style="endArrow=none;html=1;exitX=0;exitY=0.5;exitDx=0;exitDy=0;entryX=1;entryY=0.25;entryDx=0;entryDy=0;" parent="1" source="l9egmBFNPaogetp_7aR3-8" target="l9egmBFNPaogetp_7aR3-1" edge="1">
                    <mxGeometry width="50" height="50" relative="1" as="geometry">
                        <mxPoint x="470" y="230" as="sourcePoint"/>
                        <mxPoint x="520" y="180" as="targetPoint"/>
                    </mxGeometry>
                </mxCell>
                <mxCell id="l9egmBFNPaogetp_7aR3-15" value="" style="endArrow=none;html=1;exitX=1;exitY=0;exitDx=0;exitDy=0;entryX=0;entryY=0.5;entryDx=0;entryDy=0;" parent="1" source="l9egmBFNPaogetp_7aR3-1" target="l9egmBFNPaogetp_7aR3-6" edge="1">
                    <mxGeometry width="50" height="50" relative="1" as="geometry">
                        <mxPoint x="670" y="200" as="sourcePoint"/>
                        <mxPoint x="720" y="150" as="targetPoint"/>
                    </mxGeometry>
                </mxCell>
                <mxCell id="l9egmBFNPaogetp_7aR3-17" value="" style="endArrow=none;html=1;entryX=0;entryY=0.5;entryDx=0;entryDy=0;exitX=1;exitY=1;exitDx=0;exitDy=0;" parent="1" source="l9egmBFNPaogetp_7aR3-1" target="l9egmBFNPaogetp_7aR3-7" edge="1">
                    <mxGeometry width="50" height="50" relative="1" as="geometry">
                        <mxPoint x="610" y="310" as="sourcePoint"/>
                        <mxPoint x="660" y="260" as="targetPoint"/>
                    </mxGeometry>
                </mxCell>
                <mxCell id="l9egmBFNPaogetp_7aR3-19" value="" style="endArrow=none;html=1;exitX=0;exitY=0.5;exitDx=0;exitDy=0;entryX=1;entryY=0.5;entryDx=0;entryDy=0;" parent="1" source="l9egmBFNPaogetp_7aR3-9" target="l9egmBFNPaogetp_7aR3-1" edge="1">
                    <mxGeometry width="50" height="50" relative="1" as="geometry">
                        <mxPoint x="760" y="230" as="sourcePoint"/>
                        <mxPoint x="700" y="240" as="targetPoint"/>
                    </mxGeometry>
                </mxCell>
                <mxCell id="l9egmBFNPaogetp_7aR3-22" value="Customer" style="rounded=0;whiteSpace=wrap;html=1;" parent="1" vertex="1">
                    <mxGeometry x="270" y="791" width="120" height="60" as="geometry"/>
                </mxCell>
                <mxCell id="l9egmBFNPaogetp_7aR3-24" value="Address" style="rounded=0;whiteSpace=wrap;html=1;" parent="1" vertex="1">
                    <mxGeometry x="-427" y="269.5" width="120" height="60" as="geometry"/>
                </mxCell>
                <mxCell id="l9egmBFNPaogetp_7aR3-25" value="lives at" style="rhombus;whiteSpace=wrap;html=1;" parent="1" vertex="1">
                    <mxGeometry x="-172.5" y="675.5" width="80" height="80" as="geometry"/>
                </mxCell>
                <mxCell id="l9egmBFNPaogetp_7aR3-26" value="" style="endArrow=none;html=1;exitX=0.645;exitY=1.075;exitDx=0;exitDy=0;entryX=0;entryY=0.5;entryDx=0;entryDy=0;exitPerimeter=0;" parent="1" source="l9egmBFNPaogetp_7aR3-24" target="l9egmBFNPaogetp_7aR3-25" edge="1">
                    <mxGeometry width="50" height="50" relative="1" as="geometry">
                        <mxPoint x="-90" as="sourcePoint"/>
                        <mxPoint x="-40" y="-50" as="targetPoint"/>
                    </mxGeometry>
                </mxCell>
                <mxCell id="l9egmBFNPaogetp_7aR3-27" value="" style="endArrow=none;html=1;entryX=1;entryY=0.5;entryDx=0;entryDy=0;exitX=0;exitY=1;exitDx=0;exitDy=0;" parent="1" source="l9egmBFNPaogetp_7aR3-22" target="l9egmBFNPaogetp_7aR3-25" edge="1">
                    <mxGeometry width="50" height="50" relative="1" as="geometry">
                        <mxPoint x="70" y="500" as="sourcePoint"/>
                        <mxPoint x="120" y="450" as="targetPoint"/>
                    </mxGeometry>
                </mxCell>
                <mxCell id="l9egmBFNPaogetp_7aR3-28" value="city" style="ellipse;whiteSpace=wrap;html=1;" parent="1" vertex="1">
                    <mxGeometry x="-564.5" y="114.5" width="120" height="80" as="geometry"/>
                </mxCell>
                <mxCell id="l9egmBFNPaogetp_7aR3-29" value="house_number" style="ellipse;whiteSpace=wrap;html=1;" parent="1" vertex="1">
                    <mxGeometry x="-440" y="60" width="120" height="80" as="geometry"/>
                </mxCell>
                <mxCell id="l9egmBFNPaogetp_7aR3-30" value="street" style="ellipse;whiteSpace=wrap;html=1;" parent="1" vertex="1">
                    <mxGeometry x="-577" y="324.5" width="120" height="80" as="geometry"/>
                </mxCell>
                <mxCell id="l9egmBFNPaogetp_7aR3-31" value="country" style="ellipse;whiteSpace=wrap;html=1;" parent="1" vertex="1">
                    <mxGeometry x="-607" y="219.5" width="120" height="80" as="geometry"/>
                </mxCell>
                <mxCell id="l9egmBFNPaogetp_7aR3-32" value="zip code" style="ellipse;whiteSpace=wrap;html=1;" parent="1" vertex="1">
                    <mxGeometry x="-250" y="244.5" width="120" height="80" as="geometry"/>
                </mxCell>
                <mxCell id="l9egmBFNPaogetp_7aR3-33" value="" style="endArrow=none;html=1;entryX=0;entryY=0;entryDx=0;entryDy=0;" parent="1" source="l9egmBFNPaogetp_7aR3-28" target="l9egmBFNPaogetp_7aR3-24" edge="1">
                    <mxGeometry width="50" height="50" relative="1" as="geometry">
                        <mxPoint x="15.5" y="-48" as="sourcePoint"/>
                        <mxPoint x="65.5" y="-98" as="targetPoint"/>
                    </mxGeometry>
                </mxCell>
                <mxCell id="l9egmBFNPaogetp_7aR3-34" value="" style="endArrow=none;html=1;exitX=0.5;exitY=1;exitDx=0;exitDy=0;entryX=0.5;entryY=0;entryDx=0;entryDy=0;" parent="1" source="l9egmBFNPaogetp_7aR3-29" target="l9egmBFNPaogetp_7aR3-24" edge="1">
                    <mxGeometry width="50" height="50" relative="1" as="geometry">
                        <mxPoint x="225.5" y="2" as="sourcePoint"/>
                        <mxPoint x="275.5" y="-48" as="targetPoint"/>
                    </mxGeometry>
                </mxCell>
                <mxCell id="l9egmBFNPaogetp_7aR3-35" value="" style="endArrow=none;html=1;exitX=1;exitY=0.5;exitDx=0;exitDy=0;entryX=0.5;entryY=1;entryDx=0;entryDy=0;" parent="1" source="l9egmBFNPaogetp_7aR3-24" target="l9egmBFNPaogetp_7aR3-32" edge="1">
                    <mxGeometry width="50" height="50" relative="1" as="geometry">
                        <mxPoint x="225.5" y="2" as="sourcePoint"/>
                        <mxPoint x="275.5" y="-48" as="targetPoint"/>
                    </mxGeometry>
                </mxCell>
                <mxCell id="l9egmBFNPaogetp_7aR3-36" value="" style="endArrow=none;html=1;entryX=0;entryY=0.75;entryDx=0;entryDy=0;" parent="1" source="l9egmBFNPaogetp_7aR3-30" edge="1" target="l9egmBFNPaogetp_7aR3-24">
                    <mxGeometry width="50" height="50" relative="1" as="geometry">
                        <mxPoint x="-14.5" y="22" as="sourcePoint"/>
                        <mxPoint x="35.5" y="-28" as="targetPoint"/>
                    </mxGeometry>
                </mxCell>
                <mxCell id="l9egmBFNPaogetp_7aR3-37" value="" style="endArrow=none;html=1;exitX=1;exitY=0.5;exitDx=0;exitDy=0;entryX=0;entryY=0.25;entryDx=0;entryDy=0;" parent="1" source="l9egmBFNPaogetp_7aR3-31" target="l9egmBFNPaogetp_7aR3-24" edge="1">
                    <mxGeometry width="50" height="50" relative="1" as="geometry">
                        <mxPoint x="25.5" y="62" as="sourcePoint"/>
                        <mxPoint x="75.5" y="12" as="targetPoint"/>
                    </mxGeometry>
                </mxCell>
                <mxCell id="l9egmBFNPaogetp_7aR3-38" value="&lt;u&gt;Customer_ID&lt;/u&gt;" style="ellipse;whiteSpace=wrap;html=1;" parent="1" vertex="1">
                    <mxGeometry x="270" y="690" width="120" height="80" as="geometry"/>
                </mxCell>
                <mxCell id="l9egmBFNPaogetp_7aR3-39" value="" style="endArrow=none;html=1;exitX=0.5;exitY=1;exitDx=0;exitDy=0;entryX=0.5;entryY=0;entryDx=0;entryDy=0;" parent="1" source="l9egmBFNPaogetp_7aR3-38" target="l9egmBFNPaogetp_7aR3-22" edge="1">
                    <mxGeometry width="50" height="50" relative="1" as="geometry">
                        <mxPoint x="160" y="841" as="sourcePoint"/>
                        <mxPoint x="210" y="791" as="targetPoint"/>
                    </mxGeometry>
                </mxCell>
                <mxCell id="l9egmBFNPaogetp_7aR3-40" value="prename" style="ellipse;whiteSpace=wrap;html=1;" parent="1" vertex="1">
                    <mxGeometry x="190" y="921" width="120" height="80" as="geometry"/>
                </mxCell>
                <mxCell id="l9egmBFNPaogetp_7aR3-41" value="surname" style="ellipse;whiteSpace=wrap;html=1;" parent="1" vertex="1">
                    <mxGeometry x="344" y="921" width="120" height="80" as="geometry"/>
                </mxCell>
                <mxCell id="l9egmBFNPaogetp_7aR3-42" value="date of birth" style="ellipse;whiteSpace=wrap;html=1;" parent="1" vertex="1">
                    <mxGeometry x="464" y="861" width="120" height="80" as="geometry"/>
                </mxCell>
                <mxCell id="l9egmBFNPaogetp_7aR3-43" value="license" style="ellipse;whiteSpace=wrap;html=1;" parent="1" vertex="1">
                    <mxGeometry x="130" y="756" width="120" height="80" as="geometry"/>
                </mxCell>
                <mxCell id="l9egmBFNPaogetp_7aR3-44" value="" style="endArrow=none;html=1;exitX=1;exitY=0.5;exitDx=0;exitDy=0;entryX=0;entryY=0.25;entryDx=0;entryDy=0;" parent="1" source="l9egmBFNPaogetp_7aR3-43" target="l9egmBFNPaogetp_7aR3-22" edge="1">
                    <mxGeometry width="50" height="50" relative="1" as="geometry">
                        <mxPoint x="170" y="821" as="sourcePoint"/>
                        <mxPoint x="220" y="771" as="targetPoint"/>
                    </mxGeometry>
                </mxCell>
                <mxCell id="l9egmBFNPaogetp_7aR3-45" value="" style="endArrow=none;html=1;exitX=0.5;exitY=0;exitDx=0;exitDy=0;entryX=0.25;entryY=1;entryDx=0;entryDy=0;" parent="1" source="l9egmBFNPaogetp_7aR3-40" target="l9egmBFNPaogetp_7aR3-22" edge="1">
                    <mxGeometry width="50" height="50" relative="1" as="geometry">
                        <mxPoint x="270" y="921" as="sourcePoint"/>
                        <mxPoint x="320" y="871" as="targetPoint"/>
                    </mxGeometry>
                </mxCell>
                <mxCell id="l9egmBFNPaogetp_7aR3-46" value="" style="endArrow=none;html=1;entryX=0.75;entryY=1;entryDx=0;entryDy=0;exitX=0.5;exitY=0;exitDx=0;exitDy=0;" parent="1" source="l9egmBFNPaogetp_7aR3-41" target="l9egmBFNPaogetp_7aR3-22" edge="1">
                    <mxGeometry width="50" height="50" relative="1" as="geometry">
                        <mxPoint x="390" y="911" as="sourcePoint"/>
                        <mxPoint x="390" y="851" as="targetPoint"/>
                    </mxGeometry>
                </mxCell>
                <mxCell id="l9egmBFNPaogetp_7aR3-47" value="" style="endArrow=none;html=1;exitX=1;exitY=0.5;exitDx=0;exitDy=0;entryX=0;entryY=0;entryDx=0;entryDy=0;" parent="1" source="l9egmBFNPaogetp_7aR3-22" target="l9egmBFNPaogetp_7aR3-42" edge="1">
                    <mxGeometry width="50" height="50" relative="1" as="geometry">
                        <mxPoint x="430" y="851" as="sourcePoint"/>
                        <mxPoint x="477.57359312880726" y="847.7157287525381" as="targetPoint"/>
                    </mxGeometry>
                </mxCell>
                <mxCell id="l9egmBFNPaogetp_7aR3-48" value="Employee" style="rounded=0;whiteSpace=wrap;html=1;" parent="1" vertex="1">
                    <mxGeometry x="90" y="415" width="120" height="60" as="geometry"/>
                </mxCell>
                <mxCell id="l9egmBFNPaogetp_7aR3-49" value="&lt;u&gt;Employee_ID&lt;/u&gt;" style="ellipse;whiteSpace=wrap;html=1;" parent="1" vertex="1">
                    <mxGeometry x="150" y="272" width="120" height="80" as="geometry"/>
                </mxCell>
                <mxCell id="l9egmBFNPaogetp_7aR3-50" value="" style="endArrow=none;html=1;exitX=0.75;exitY=0;exitDx=0;exitDy=0;entryX=0.35;entryY=1.025;entryDx=0;entryDy=0;entryPerimeter=0;" parent="1" source="l9egmBFNPaogetp_7aR3-48" target="l9egmBFNPaogetp_7aR3-49" edge="1">
                    <mxGeometry width="50" height="50" relative="1" as="geometry">
                        <mxPoint x="910" y="630" as="sourcePoint"/>
                        <mxPoint x="960" y="580" as="targetPoint"/>
                    </mxGeometry>
                </mxCell>
                <mxCell id="l9egmBFNPaogetp_7aR3-51" value="lives at" style="rhombus;whiteSpace=wrap;html=1;" parent="1" vertex="1">
                    <mxGeometry x="-210" y="420" width="80" height="80" as="geometry"/>
                </mxCell>
                <mxCell id="l9egmBFNPaogetp_7aR3-53" value="" style="endArrow=none;html=1;exitX=0;exitY=0.5;exitDx=0;exitDy=0;entryX=1;entryY=1;entryDx=0;entryDy=0;" parent="1" source="l9egmBFNPaogetp_7aR3-51" target="l9egmBFNPaogetp_7aR3-24" edge="1">
                    <mxGeometry width="50" height="50" relative="1" as="geometry">
                        <mxPoint x="-130" y="-10" as="sourcePoint"/>
                        <mxPoint x="340" y="215" as="targetPoint"/>
                    </mxGeometry>
                </mxCell>
                <mxCell id="l9egmBFNPaogetp_7aR3-54" value="" style="endArrow=none;html=1;exitX=0;exitY=0.75;exitDx=0;exitDy=0;entryX=1;entryY=0.5;entryDx=0;entryDy=0;" parent="1" source="l9egmBFNPaogetp_7aR3-48" target="l9egmBFNPaogetp_7aR3-51" edge="1">
                    <mxGeometry width="50" height="50" relative="1" as="geometry">
                        <mxPoint x="-130" y="160" as="sourcePoint"/>
                        <mxPoint x="-70" y="120" as="targetPoint"/>
                    </mxGeometry>
                </mxCell>
                <mxCell id="l9egmBFNPaogetp_7aR3-55" value="first_name" style="ellipse;whiteSpace=wrap;html=1;" parent="1" vertex="1">
                    <mxGeometry x="2.5" y="570" width="120" height="80" as="geometry"/>
                </mxCell>
                <mxCell id="l9egmBFNPaogetp_7aR3-56" value="last_name" style="ellipse;whiteSpace=wrap;html=1;" parent="1" vertex="1">
                    <mxGeometry x="140" y="550" width="120" height="80" as="geometry"/>
                </mxCell>
                <mxCell id="l9egmBFNPaogetp_7aR3-57" value="" style="endArrow=none;html=1;exitX=1;exitY=0;exitDx=0;exitDy=0;entryX=0.5;entryY=1;entryDx=0;entryDy=0;" parent="1" source="l9egmBFNPaogetp_7aR3-55" target="l9egmBFNPaogetp_7aR3-48" edge="1">
                    <mxGeometry width="50" height="50" relative="1" as="geometry">
                        <mxPoint y="560" as="sourcePoint"/>
                        <mxPoint x="50" y="510" as="targetPoint"/>
                    </mxGeometry>
                </mxCell>
                <mxCell id="l9egmBFNPaogetp_7aR3-58" value="" style="endArrow=none;html=1;entryX=0.75;entryY=1;entryDx=0;entryDy=0;exitX=0.5;exitY=0;exitDx=0;exitDy=0;" parent="1" source="l9egmBFNPaogetp_7aR3-56" target="l9egmBFNPaogetp_7aR3-48" edge="1">
                    <mxGeometry width="50" height="50" relative="1" as="geometry">
                        <mxPoint x="80" y="620" as="sourcePoint"/>
                        <mxPoint x="120" y="560" as="targetPoint"/>
                    </mxGeometry>
                </mxCell>
                <mxCell id="l9egmBFNPaogetp_7aR3-59" value="status" style="ellipse;whiteSpace=wrap;html=1;" parent="1" vertex="1">
                    <mxGeometry x="860" y="315" width="120" height="80" as="geometry"/>
                </mxCell>
                <mxCell id="l9egmBFNPaogetp_7aR3-60" value="" style="endArrow=none;html=1;entryX=0.75;entryY=1;entryDx=0;entryDy=0;exitX=0.5;exitY=0;exitDx=0;exitDy=0;" parent="1" source="l9egmBFNPaogetp_7aR3-59" target="l9egmBFNPaogetp_7aR3-1" edge="1">
                    <mxGeometry width="50" height="50" relative="1" as="geometry">
                        <mxPoint x="490" y="360" as="sourcePoint"/>
                        <mxPoint x="540" y="310" as="targetPoint"/>
                    </mxGeometry>
                </mxCell>
                <mxCell id="l9egmBFNPaogetp_7aR3-65" value="Branch" style="rounded=0;whiteSpace=wrap;html=1;" parent="1" vertex="1">
                    <mxGeometry x="-250" y="-60" width="120" height="60" as="geometry"/>
                </mxCell>
                <mxCell id="l9egmBFNPaogetp_7aR3-66" value="&lt;u&gt;Branch_ID&lt;/u&gt;" style="ellipse;whiteSpace=wrap;html=1;" parent="1" vertex="1">
                    <mxGeometry x="-130" y="-180" width="120" height="80" as="geometry"/>
                </mxCell>
                <mxCell id="l9egmBFNPaogetp_7aR3-67" value="Manager" style="ellipse;whiteSpace=wrap;html=1;" parent="1" vertex="1">
                    <mxGeometry x="-240" y="-220" width="120" height="80" as="geometry"/>
                </mxCell>
                <mxCell id="l9egmBFNPaogetp_7aR3-68" value="has" style="rhombus;whiteSpace=wrap;html=1;" parent="1" vertex="1">
                    <mxGeometry x="-307" y="95" width="80" height="80" as="geometry"/>
                </mxCell>
                <mxCell id="l9egmBFNPaogetp_7aR3-70" value="" style="endArrow=none;html=1;exitX=1;exitY=0;exitDx=0;exitDy=0;entryX=0.5;entryY=1;entryDx=0;entryDy=0;" parent="1" source="l9egmBFNPaogetp_7aR3-24" target="l9egmBFNPaogetp_7aR3-68" edge="1">
                    <mxGeometry width="50" height="50" relative="1" as="geometry">
                        <mxPoint x="140" as="sourcePoint"/>
                        <mxPoint x="190" y="-50" as="targetPoint"/>
                    </mxGeometry>
                </mxCell>
                <mxCell id="l9egmBFNPaogetp_7aR3-71" value="" style="endArrow=none;html=1;entryX=0.433;entryY=1;entryDx=0;entryDy=0;entryPerimeter=0;exitX=1;exitY=0;exitDx=0;exitDy=0;" parent="1" source="l9egmBFNPaogetp_7aR3-65" target="l9egmBFNPaogetp_7aR3-66" edge="1">
                    <mxGeometry width="50" height="50" relative="1" as="geometry">
                        <mxPoint x="-40" y="770" as="sourcePoint"/>
                        <mxPoint x="10" y="720" as="targetPoint"/>
                    </mxGeometry>
                </mxCell>
                <mxCell id="l9egmBFNPaogetp_7aR3-72" value="" style="endArrow=none;html=1;exitX=0.5;exitY=0;exitDx=0;exitDy=0;" parent="1" source="l9egmBFNPaogetp_7aR3-65" target="l9egmBFNPaogetp_7aR3-67" edge="1">
                    <mxGeometry width="50" height="50" relative="1" as="geometry">
                        <mxPoint x="-260" y="740" as="sourcePoint"/>
                        <mxPoint x="-210" y="690" as="targetPoint"/>
                    </mxGeometry>
                </mxCell>
                <mxCell id="l9egmBFNPaogetp_7aR3-73" value="is parked" style="rhombus;whiteSpace=wrap;html=1;" parent="1" vertex="1">
                    <mxGeometry x="335" y="142.5" width="80" height="80" as="geometry"/>
                </mxCell>
                <mxCell id="l9egmBFNPaogetp_7aR3-76" value="Rent" style="rounded=0;whiteSpace=wrap;html=1;" parent="1" vertex="1">
                    <mxGeometry x="776" y="600" width="120" height="60" as="geometry"/>
                </mxCell>
                <mxCell id="l9egmBFNPaogetp_7aR3-77" value="&lt;u&gt;rent_ID&lt;/u&gt;" style="ellipse;whiteSpace=wrap;html=1;" parent="1" vertex="1">
                    <mxGeometry x="876" y="715" width="120" height="80" as="geometry"/>
                </mxCell>
                <mxCell id="l9egmBFNPaogetp_7aR3-78" value="free kilometers" style="ellipse;whiteSpace=wrap;html=1;" parent="1" vertex="1">
                    <mxGeometry x="996" y="585" width="120" height="80" as="geometry"/>
                </mxCell>
                <mxCell id="l9egmBFNPaogetp_7aR3-80" value="duration" style="ellipse;whiteSpace=wrap;html=1;" parent="1" vertex="1">
                    <mxGeometry x="956" y="485" width="120" height="80" as="geometry"/>
                </mxCell>
                <mxCell id="l9egmBFNPaogetp_7aR3-83" value="" style="endArrow=none;html=1;entryX=0.75;entryY=1;entryDx=0;entryDy=0;exitX=0.5;exitY=0;exitDx=0;exitDy=0;" parent="1" source="l9egmBFNPaogetp_7aR3-77" target="l9egmBFNPaogetp_7aR3-76" edge="1">
                    <mxGeometry width="50" height="50" relative="1" as="geometry">
                        <mxPoint x="740" y="790" as="sourcePoint"/>
                        <mxPoint x="775" y="725" as="targetPoint"/>
                    </mxGeometry>
                </mxCell>
                <mxCell id="l9egmBFNPaogetp_7aR3-85" value="" style="endArrow=none;html=1;exitX=1;exitY=0.5;exitDx=0;exitDy=0;entryX=0;entryY=0.5;entryDx=0;entryDy=0;" parent="1" source="l9egmBFNPaogetp_7aR3-76" target="l9egmBFNPaogetp_7aR3-78" edge="1">
                    <mxGeometry width="50" height="50" relative="1" as="geometry">
                        <mxPoint x="810" y="685" as="sourcePoint"/>
                        <mxPoint x="870" y="670" as="targetPoint"/>
                    </mxGeometry>
                </mxCell>
                <mxCell id="l9egmBFNPaogetp_7aR3-86" value="" style="endArrow=none;html=1;exitX=1;exitY=0.25;exitDx=0;exitDy=0;entryX=0;entryY=1;entryDx=0;entryDy=0;" parent="1" source="l9egmBFNPaogetp_7aR3-76" target="l9egmBFNPaogetp_7aR3-80" edge="1">
                    <mxGeometry width="50" height="50" relative="1" as="geometry">
                        <mxPoint x="810" y="665" as="sourcePoint"/>
                        <mxPoint x="870" y="620" as="targetPoint"/>
                    </mxGeometry>
                </mxCell>
                <mxCell id="ZUZz8ysNRbyNZvEP5m1B-1" value="&lt;u&gt;adress_id&lt;/u&gt;" style="ellipse;whiteSpace=wrap;html=1;" parent="1" vertex="1">
                    <mxGeometry x="-457" y="404.5" width="120" height="80" as="geometry"/>
                </mxCell>
                <mxCell id="ZUZz8ysNRbyNZvEP5m1B-2" value="" style="endArrow=none;html=1;exitX=0.25;exitY=1;exitDx=0;exitDy=0;entryX=0.5;entryY=0;entryDx=0;entryDy=0;" parent="1" source="l9egmBFNPaogetp_7aR3-24" target="ZUZz8ysNRbyNZvEP5m1B-1" edge="1">
                    <mxGeometry width="50" height="50" relative="1" as="geometry">
                        <mxPoint x="195.5" y="82" as="sourcePoint"/>
                        <mxPoint x="245.5" y="32" as="targetPoint"/>
                    </mxGeometry>
                </mxCell>
                <mxCell id="ZUZz8ysNRbyNZvEP5m1B-8" value="n" style="text;html=1;align=center;verticalAlign=middle;resizable=0;points=[];autosize=1;" parent="1" vertex="1">
                    <mxGeometry x="425" y="163.5" width="20" height="20" as="geometry"/>
                </mxCell>
                <mxCell id="ZUZz8ysNRbyNZvEP5m1B-9" value="1" style="text;html=1;align=center;verticalAlign=middle;resizable=0;points=[];autosize=1;" parent="1" vertex="1">
                    <mxGeometry x="325" y="143.5" width="20" height="20" as="geometry"/>
                </mxCell>
                <mxCell id="ZUZz8ysNRbyNZvEP5m1B-10" value="1" style="text;html=1;align=center;verticalAlign=middle;resizable=0;points=[];autosize=1;" parent="1" vertex="1">
                    <mxGeometry x="-277" y="60" width="20" height="20" as="geometry"/>
                </mxCell>
                <mxCell id="ZUZz8ysNRbyNZvEP5m1B-11" value="1" style="text;html=1;align=center;verticalAlign=middle;resizable=0;points=[];autosize=1;" parent="1" vertex="1">
                    <mxGeometry x="-287" y="182.5" width="20" height="20" as="geometry"/>
                </mxCell>
                <mxCell id="ZUZz8ysNRbyNZvEP5m1B-14" value="n" style="text;html=1;align=center;verticalAlign=middle;resizable=0;points=[];autosize=1;" parent="1" vertex="1">
                    <mxGeometry x="-130" y="437" width="20" height="20" as="geometry"/>
                </mxCell>
                <mxCell id="ZUZz8ysNRbyNZvEP5m1B-15" value="1" style="text;html=1;align=center;verticalAlign=middle;resizable=0;points=[];autosize=1;" parent="1" vertex="1">
                    <mxGeometry x="-230" y="430" width="20" height="20" as="geometry"/>
                </mxCell>
                <mxCell id="ZUZz8ysNRbyNZvEP5m1B-16" value="n" style="text;html=1;align=center;verticalAlign=middle;resizable=0;points=[];autosize=1;" parent="1" vertex="1">
                    <mxGeometry x="-62.5" y="705.5" width="20" height="20" as="geometry"/>
                </mxCell>
                <mxCell id="ZUZz8ysNRbyNZvEP5m1B-17" value="1" style="text;html=1;align=center;verticalAlign=middle;resizable=0;points=[];autosize=1;" parent="1" vertex="1">
                    <mxGeometry x="-192.5" y="674.5" width="20" height="20" as="geometry"/>
                </mxCell>
                <mxCell id="ZUZz8ysNRbyNZvEP5m1B-28" value="" style="endArrow=none;html=1;entryX=0.5;entryY=1;entryDx=0;entryDy=0;" parent="1" target="l9egmBFNPaogetp_7aR3-1" edge="1" source="ZUZz8ysNRbyNZvEP5m1B-29">
                    <mxGeometry width="50" height="50" relative="1" as="geometry">
                        <mxPoint x="680" y="460" as="sourcePoint"/>
                        <mxPoint x="680" y="300" as="targetPoint"/>
                    </mxGeometry>
                </mxCell>
                <mxCell id="ZUZz8ysNRbyNZvEP5m1B-29" value="is" style="rhombus;whiteSpace=wrap;html=1;rounded=0;shadow=0;glass=0;sketch=0;" parent="1" vertex="1">
                    <mxGeometry x="770" y="440" width="80" height="80" as="geometry"/>
                </mxCell>
                <mxCell id="ZUZz8ysNRbyNZvEP5m1B-30" value="" style="endArrow=none;html=1;entryX=0.5;entryY=1;entryDx=0;entryDy=0;exitX=0.25;exitY=0;exitDx=0;exitDy=0;" parent="1" source="l9egmBFNPaogetp_7aR3-76" target="ZUZz8ysNRbyNZvEP5m1B-29" edge="1">
                    <mxGeometry width="50" height="50" relative="1" as="geometry">
                        <mxPoint x="705" y="645" as="sourcePoint"/>
                        <mxPoint x="730" y="580" as="targetPoint"/>
                    </mxGeometry>
                </mxCell>
                <mxCell id="ZUZz8ysNRbyNZvEP5m1B-31" value="n" style="text;html=1;align=center;verticalAlign=middle;resizable=0;points=[];autosize=1;" parent="1" vertex="1">
                    <mxGeometry x="810" y="520" width="20" height="20" as="geometry"/>
                </mxCell>
                <mxCell id="ZUZz8ysNRbyNZvEP5m1B-32" value="1" style="text;html=1;align=center;verticalAlign=middle;resizable=0;points=[];autosize=1;" parent="1" vertex="1">
                    <mxGeometry x="810" y="420" width="20" height="20" as="geometry"/>
                </mxCell>
                <mxCell id="ZUZz8ysNRbyNZvEP5m1B-35" value="issues" style="rhombus;whiteSpace=wrap;html=1;rounded=0;shadow=0;glass=0;sketch=0;" parent="1" vertex="1">
                    <mxGeometry x="330" y="529" width="80" height="80" as="geometry"/>
                </mxCell>
                <mxCell id="ZUZz8ysNRbyNZvEP5m1B-36" value="" style="endArrow=none;html=1;exitX=1;exitY=0.5;exitDx=0;exitDy=0;entryX=0;entryY=0.5;entryDx=0;entryDy=0;" parent="1" source="l9egmBFNPaogetp_7aR3-48" target="ZUZz8ysNRbyNZvEP5m1B-35" edge="1">
                    <mxGeometry width="50" height="50" relative="1" as="geometry">
                        <mxPoint x="100" y="600" as="sourcePoint"/>
                        <mxPoint x="150" y="550" as="targetPoint"/>
                    </mxGeometry>
                </mxCell>
                <mxCell id="ZUZz8ysNRbyNZvEP5m1B-37" value="" style="endArrow=none;html=1;exitX=1;exitY=0.5;exitDx=0;exitDy=0;entryX=0;entryY=0.25;entryDx=0;entryDy=0;" parent="1" source="ZUZz8ysNRbyNZvEP5m1B-35" target="l9egmBFNPaogetp_7aR3-76" edge="1">
                    <mxGeometry width="50" height="50" relative="1" as="geometry">
                        <mxPoint x="390" y="610" as="sourcePoint"/>
                        <mxPoint x="670" y="665" as="targetPoint"/>
                    </mxGeometry>
                </mxCell>
                <mxCell id="ZUZz8ysNRbyNZvEP5m1B-38" value="1" style="text;html=1;align=center;verticalAlign=middle;resizable=0;points=[];autosize=1;" parent="1" vertex="1">
                    <mxGeometry x="310" y="539" width="20" height="20" as="geometry"/>
                </mxCell>
                <mxCell id="ZUZz8ysNRbyNZvEP5m1B-39" value="n" style="text;html=1;align=center;verticalAlign=middle;resizable=0;points=[];autosize=1;" parent="1" vertex="1">
                    <mxGeometry x="410" y="549" width="20" height="20" as="geometry"/>
                </mxCell>
                <mxCell id="ZUZz8ysNRbyNZvEP5m1B-40" value="" style="endArrow=none;html=1;exitX=0;exitY=0.5;exitDx=0;exitDy=0;entryX=1;entryY=0.5;entryDx=0;entryDy=0;" parent="1" source="l9egmBFNPaogetp_7aR3-73" target="l9egmBFNPaogetp_7aR3-65" edge="1">
                    <mxGeometry width="50" height="50" relative="1" as="geometry">
                        <mxPoint x="290" y="250" as="sourcePoint"/>
                        <mxPoint x="340" y="200" as="targetPoint"/>
                    </mxGeometry>
                </mxCell>
                <mxCell id="ZUZz8ysNRbyNZvEP5m1B-42" value="" style="endArrow=none;html=1;exitX=0.25;exitY=1;exitDx=0;exitDy=0;entryX=0.5;entryY=0;entryDx=0;entryDy=0;" parent="1" source="l9egmBFNPaogetp_7aR3-65" target="l9egmBFNPaogetp_7aR3-68" edge="1">
                    <mxGeometry width="50" height="50" relative="1" as="geometry">
                        <mxPoint x="-140" y="-10" as="sourcePoint"/>
                        <mxPoint x="-290" y="90" as="targetPoint"/>
                    </mxGeometry>
                </mxCell>
                <mxCell id="ZUZz8ysNRbyNZvEP5m1B-43" value="works" style="rhombus;whiteSpace=wrap;html=1;rounded=0;shadow=0;glass=0;sketch=0;" parent="1" vertex="1">
                    <mxGeometry x="-150" y="132.5" width="80" height="80" as="geometry"/>
                </mxCell>
                <mxCell id="ZUZz8ysNRbyNZvEP5m1B-46" value="n" style="text;html=1;align=center;verticalAlign=middle;resizable=0;points=[];autosize=1;" parent="1" vertex="1">
                    <mxGeometry x="-120" y="212.5" width="20" height="20" as="geometry"/>
                </mxCell>
                <mxCell id="ZUZz8ysNRbyNZvEP5m1B-47" value="1" style="text;html=1;align=center;verticalAlign=middle;resizable=0;points=[];autosize=1;" parent="1" vertex="1">
                    <mxGeometry x="-120" y="102.5" width="20" height="20" as="geometry"/>
                </mxCell>
                <mxCell id="l3lUAjFJ3P5t8_1JMIWJ-1" value="has" style="rhombus;whiteSpace=wrap;html=1;" parent="1" vertex="1">
                    <mxGeometry x="495" y="42.5" width="80" height="80" as="geometry"/>
                </mxCell>
                <mxCell id="l3lUAjFJ3P5t8_1JMIWJ-2" value="" style="endArrow=none;html=1;entryX=1;entryY=0.5;entryDx=0;entryDy=0;exitX=0.25;exitY=0;exitDx=0;exitDy=0;" parent="1" source="l9egmBFNPaogetp_7aR3-1" target="l3lUAjFJ3P5t8_1JMIWJ-1" edge="1">
                    <mxGeometry width="50" height="50" relative="1" as="geometry">
                        <mxPoint x="410" y="50" as="sourcePoint"/>
                        <mxPoint x="460" as="targetPoint"/>
                    </mxGeometry>
                </mxCell>
                <mxCell id="l3lUAjFJ3P5t8_1JMIWJ-3" value="" style="endArrow=none;html=1;entryX=0.5;entryY=1;entryDx=0;entryDy=0;exitX=0;exitY=0.5;exitDx=0;exitDy=0;" parent="1" source="l3lUAjFJ3P5t8_1JMIWJ-1" edge="1" target="l3lUAjFJ3P5t8_1JMIWJ-4">
                    <mxGeometry width="50" height="50" relative="1" as="geometry">
                        <mxPoint x="500" as="sourcePoint"/>
                        <mxPoint x="394" y="-280" as="targetPoint"/>
                    </mxGeometry>
                </mxCell>
                <mxCell id="l3lUAjFJ3P5t8_1JMIWJ-4" value="price" style="rounded=0;whiteSpace=wrap;html=1;" parent="1" vertex="1">
                    <mxGeometry x="249" y="-60" width="120" height="60" as="geometry"/>
                </mxCell>
                <mxCell id="l3lUAjFJ3P5t8_1JMIWJ-5" value="&lt;u&gt;price_id&lt;/u&gt;" style="ellipse;whiteSpace=wrap;html=1;" parent="1" vertex="1">
                    <mxGeometry x="475" y="-80" width="120" height="80" as="geometry"/>
                </mxCell>
                <mxCell id="l3lUAjFJ3P5t8_1JMIWJ-6" value="" style="endArrow=none;html=1;exitX=1;exitY=0.5;exitDx=0;exitDy=0;entryX=0;entryY=0.5;entryDx=0;entryDy=0;" parent="1" source="l3lUAjFJ3P5t8_1JMIWJ-4" target="l3lUAjFJ3P5t8_1JMIWJ-5" edge="1">
                    <mxGeometry width="50" height="50" relative="1" as="geometry">
                        <mxPoint x="385" y="-30" as="sourcePoint"/>
                        <mxPoint x="455" y="20" as="targetPoint"/>
                    </mxGeometry>
                </mxCell>
                <mxCell id="l3lUAjFJ3P5t8_1JMIWJ-8" value="per day" style="ellipse;whiteSpace=wrap;html=1;" parent="1" vertex="1">
                    <mxGeometry x="315" y="-240" width="120" height="80" as="geometry"/>
                </mxCell>
                <mxCell id="l3lUAjFJ3P5t8_1JMIWJ-9" value="" style="endArrow=none;html=1;entryX=0.5;entryY=1;entryDx=0;entryDy=0;exitX=0.5;exitY=0;exitDx=0;exitDy=0;" parent="1" source="l3lUAjFJ3P5t8_1JMIWJ-4" target="l3lUAjFJ3P5t8_1JMIWJ-8" edge="1">
                    <mxGeometry width="50" height="50" relative="1" as="geometry">
                        <mxPoint x="315" y="-70" as="sourcePoint"/>
                        <mxPoint x="315" y="-140" as="targetPoint"/>
                    </mxGeometry>
                </mxCell>
                <mxCell id="l3lUAjFJ3P5t8_1JMIWJ-11" value="" style="endArrow=none;html=1;entryX=0;entryY=0.25;entryDx=0;entryDy=0;exitX=1;exitY=1;exitDx=0;exitDy=0;" parent="1" source="l3lUAjFJ3P5t8_1JMIWJ-12" target="l9egmBFNPaogetp_7aR3-48" edge="1">
                    <mxGeometry width="50" height="50" relative="1" as="geometry">
                        <mxPoint x="-70" y="400" as="sourcePoint"/>
                        <mxPoint x="-20" y="370" as="targetPoint"/>
                    </mxGeometry>
                </mxCell>
                <mxCell id="l3lUAjFJ3P5t8_1JMIWJ-12" value="salary" style="ellipse;whiteSpace=wrap;html=1;" parent="1" vertex="1">
                    <mxGeometry x="-110" y="360" width="120" height="80" as="geometry"/>
                </mxCell>
                <mxCell id="l3lUAjFJ3P5t8_1JMIWJ-13" value="" style="endArrow=none;html=1;entryX=1;entryY=0;entryDx=0;entryDy=0;exitX=0;exitY=1;exitDx=0;exitDy=0;" parent="1" source="l3lUAjFJ3P5t8_1JMIWJ-14" target="l9egmBFNPaogetp_7aR3-48" edge="1">
                    <mxGeometry width="50" height="50" relative="1" as="geometry">
                        <mxPoint x="-40" y="340" as="sourcePoint"/>
                        <mxPoint x="20" y="410" as="targetPoint"/>
                    </mxGeometry>
                </mxCell>
                <mxCell id="l3lUAjFJ3P5t8_1JMIWJ-14" value="commission" style="ellipse;whiteSpace=wrap;html=1;" parent="1" vertex="1">
                    <mxGeometry x="260" y="330" width="120" height="80" as="geometry"/>
                </mxCell>
                <mxCell id="l3lUAjFJ3P5t8_1JMIWJ-15" value="" style="endArrow=none;html=1;entryX=0;entryY=1;entryDx=0;entryDy=0;exitX=1;exitY=0.5;exitDx=0;exitDy=0;" parent="1" source="l3lUAjFJ3P5t8_1JMIWJ-16" target="l9egmBFNPaogetp_7aR3-48" edge="1">
                    <mxGeometry width="50" height="50" relative="1" as="geometry">
                        <mxPoint x="-110" y="590" as="sourcePoint"/>
                        <mxPoint x="-60" y="540" as="targetPoint"/>
                    </mxGeometry>
                </mxCell>
                <mxCell id="l3lUAjFJ3P5t8_1JMIWJ-16" value="date of birth" style="ellipse;whiteSpace=wrap;html=1;" parent="1" vertex="1">
                    <mxGeometry x="-110" y="490" width="120" height="80" as="geometry"/>
                </mxCell>
                <mxCell id="l3lUAjFJ3P5t8_1JMIWJ-19" value="n" style="text;html=1;align=center;verticalAlign=middle;resizable=0;points=[];autosize=1;" parent="1" vertex="1">
                    <mxGeometry x="595" y="70" width="20" height="20" as="geometry"/>
                </mxCell>
                <mxCell id="l3lUAjFJ3P5t8_1JMIWJ-20" value="1" style="text;html=1;align=center;verticalAlign=middle;resizable=0;points=[];autosize=1;" parent="1" vertex="1">
                    <mxGeometry x="470" y="50" width="20" height="20" as="geometry"/>
                </mxCell>
                <mxCell id="l3lUAjFJ3P5t8_1JMIWJ-21" value="price_class" style="ellipse;whiteSpace=wrap;html=1;" parent="1" vertex="1">
                    <mxGeometry x="125" y="-220" width="120" height="70" as="geometry"/>
                </mxCell>
                <mxCell id="l3lUAjFJ3P5t8_1JMIWJ-22" value="" style="endArrow=none;html=1;entryX=0.5;entryY=1;entryDx=0;entryDy=0;exitX=0.308;exitY=0;exitDx=0;exitDy=0;exitPerimeter=0;" parent="1" source="l3lUAjFJ3P5t8_1JMIWJ-4" target="l3lUAjFJ3P5t8_1JMIWJ-21" edge="1">
                    <mxGeometry width="50" height="50" relative="1" as="geometry">
                        <mxPoint x="272.5" y="-70" as="sourcePoint"/>
                        <mxPoint x="235" y="-120" as="targetPoint"/>
                    </mxGeometry>
                </mxCell>
                <mxCell id="l3lUAjFJ3P5t8_1JMIWJ-23" value="per KM" style="ellipse;whiteSpace=wrap;html=1;" parent="1" vertex="1">
                    <mxGeometry x="445" y="-190" width="120" height="80" as="geometry"/>
                </mxCell>
                <mxCell id="l3lUAjFJ3P5t8_1JMIWJ-24" value="" style="endArrow=none;html=1;entryX=0;entryY=1;entryDx=0;entryDy=0;exitX=1;exitY=0;exitDx=0;exitDy=0;" parent="1" source="l3lUAjFJ3P5t8_1JMIWJ-4" target="l3lUAjFJ3P5t8_1JMIWJ-23" edge="1">
                    <mxGeometry width="50" height="50" relative="1" as="geometry">
                        <mxPoint x="385" y="-70" as="sourcePoint"/>
                        <mxPoint x="445" y="-110" as="targetPoint"/>
                    </mxGeometry>
                </mxCell>
                <mxCell id="l3lUAjFJ3P5t8_1JMIWJ-25" value="security deposit" style="ellipse;whiteSpace=wrap;html=1;" parent="1" vertex="1">
                    <mxGeometry x="45" y="-130" width="120" height="80" as="geometry"/>
                </mxCell>
                <mxCell id="l3lUAjFJ3P5t8_1JMIWJ-26" value="" style="endArrow=none;html=1;entryX=1;entryY=1;entryDx=0;entryDy=0;exitX=0;exitY=0.25;exitDx=0;exitDy=0;" parent="1" source="l3lUAjFJ3P5t8_1JMIWJ-4" target="l3lUAjFJ3P5t8_1JMIWJ-25" edge="1">
                    <mxGeometry width="50" height="50" relative="1" as="geometry">
                        <mxPoint x="235" y="-50" as="sourcePoint"/>
                        <mxPoint x="225" as="targetPoint"/>
                    </mxGeometry>
                </mxCell>
                <mxCell id="l3lUAjFJ3P5t8_1JMIWJ-27" value="parking_spaces" style="ellipse;whiteSpace=wrap;html=1;" parent="1" vertex="1">
                    <mxGeometry x="-390" y="-170" width="120" height="70" as="geometry"/>
                </mxCell>
                <mxCell id="l3lUAjFJ3P5t8_1JMIWJ-28" value="" style="endArrow=none;html=1;entryX=0.5;entryY=1;entryDx=0;entryDy=0;" parent="1" target="l3lUAjFJ3P5t8_1JMIWJ-27" edge="1">
                    <mxGeometry width="50" height="50" relative="1" as="geometry">
                        <mxPoint x="-220" y="-60" as="sourcePoint"/>
                        <mxPoint y="720" as="targetPoint"/>
                    </mxGeometry>
                </mxCell>
                <mxCell id="iHAO1y8B95vVcQq13k_9-1" value="payment" style="rounded=0;whiteSpace=wrap;html=1;" parent="1" vertex="1">
                    <mxGeometry x="726" y="865" width="120" height="60" as="geometry"/>
                </mxCell>
                <mxCell id="iHAO1y8B95vVcQq13k_9-3" value="has" style="rhombus;whiteSpace=wrap;html=1;" parent="1" vertex="1">
                    <mxGeometry x="746" y="725" width="80" height="80" as="geometry"/>
                </mxCell>
                <mxCell id="iHAO1y8B95vVcQq13k_9-5" value="" style="endArrow=none;html=1;entryX=0.25;entryY=1;entryDx=0;entryDy=0;exitX=0.5;exitY=0;exitDx=0;exitDy=0;" parent="1" source="iHAO1y8B95vVcQq13k_9-3" target="l9egmBFNPaogetp_7aR3-76" edge="1">
                    <mxGeometry width="50" height="50" relative="1" as="geometry">
                        <mxPoint x="720" y="770" as="sourcePoint"/>
                        <mxPoint x="705" y="725" as="targetPoint"/>
                    </mxGeometry>
                </mxCell>
                <mxCell id="iHAO1y8B95vVcQq13k_9-6" value="1" style="text;html=1;align=center;verticalAlign=middle;resizable=0;points=[];autosize=1;strokeColor=none;" parent="1" vertex="1">
                    <mxGeometry x="786" y="705" width="20" height="20" as="geometry"/>
                </mxCell>
                <mxCell id="iHAO1y8B95vVcQq13k_9-7" value="n" style="text;html=1;align=center;verticalAlign=middle;resizable=0;points=[];autosize=1;strokeColor=none;" parent="1" vertex="1">
                    <mxGeometry x="786" y="795" width="20" height="20" as="geometry"/>
                </mxCell>
                <mxCell id="iHAO1y8B95vVcQq13k_9-9" value="" style="endArrow=none;html=1;entryX=0.25;entryY=1;entryDx=0;entryDy=0;exitX=0.5;exitY=0;exitDx=0;exitDy=0;" parent="1" source="fejI6KJ4Bnp3OeD6wLqf-1" target="iHAO1y8B95vVcQq13k_9-2" edge="1">
                    <mxGeometry width="50" height="50" relative="1" as="geometry">
                        <mxPoint x="560" y="1030" as="sourcePoint"/>
                        <mxPoint x="770" y="1030" as="targetPoint"/>
                    </mxGeometry>
                </mxCell>
                <mxCell id="iHAO1y8B95vVcQq13k_9-10" value="payment amount" style="ellipse;whiteSpace=wrap;html=1;" parent="1" vertex="1">
                    <mxGeometry x="866" y="975" width="130" height="80" as="geometry"/>
                </mxCell>
                <mxCell id="iHAO1y8B95vVcQq13k_9-11" value="" style="endArrow=none;html=1;entryX=0.75;entryY=1;entryDx=0;entryDy=0;exitX=0.5;exitY=0;exitDx=0;exitDy=0;" parent="1" source="iHAO1y8B95vVcQq13k_9-10" target="iHAO1y8B95vVcQq13k_9-2" edge="1">
                    <mxGeometry width="50" height="50" relative="1" as="geometry">
                        <mxPoint x="680" y="1060" as="sourcePoint"/>
                        <mxPoint x="730" y="1010" as="targetPoint"/>
                    </mxGeometry>
                </mxCell>
                <mxCell id="fejI6KJ4Bnp3OeD6wLqf-1" value="&lt;span style=&quot;border-bottom: 1px dotted&quot;&gt;payment date&lt;/span&gt;" style="ellipse;whiteSpace=wrap;html=1;align=center;" parent="1" vertex="1">
                    <mxGeometry x="606" y="980" width="140" height="70" as="geometry"/>
                </mxCell>
                <mxCell id="fejI6KJ4Bnp3OeD6wLqf-2" value="" style="shape=link;html=1;rounded=0;exitX=0.5;exitY=1;exitDx=0;exitDy=0;entryX=0.5;entryY=0;entryDx=0;entryDy=0;" parent="1" source="l9egmBFNPaogetp_7aR3-65" target="ZUZz8ysNRbyNZvEP5m1B-43" edge="1">
                    <mxGeometry relative="1" as="geometry">
                        <mxPoint x="220" y="420" as="sourcePoint"/>
                        <mxPoint x="380" y="420" as="targetPoint"/>
                    </mxGeometry>
                </mxCell>
                <mxCell id="fejI6KJ4Bnp3OeD6wLqf-5" value="" style="shape=link;html=1;rounded=0;entryX=0.5;entryY=1;entryDx=0;entryDy=0;exitX=0.5;exitY=0;exitDx=0;exitDy=0;" parent="1" source="iHAO1y8B95vVcQq13k_9-2" target="iHAO1y8B95vVcQq13k_9-3" edge="1">
                    <mxGeometry relative="1" as="geometry">
                        <mxPoint x="550" y="900" as="sourcePoint"/>
                        <mxPoint x="660" y="880" as="targetPoint"/>
                    </mxGeometry>
                </mxCell>
                <mxCell id="fejI6KJ4Bnp3OeD6wLqf-7" value="" style="shape=link;html=1;rounded=0;exitX=0.16;exitY=0.021;exitDx=0;exitDy=0;entryX=0.5;entryY=1;entryDx=0;entryDy=0;exitPerimeter=0;" parent="1" source="l9egmBFNPaogetp_7aR3-48" target="ZUZz8ysNRbyNZvEP5m1B-43" edge="1">
                    <mxGeometry relative="1" as="geometry">
                        <mxPoint x="220" y="520" as="sourcePoint"/>
                        <mxPoint x="380" y="520" as="targetPoint"/>
                    </mxGeometry>
                </mxCell>
                <mxCell id="2" value="manages" style="rhombus;whiteSpace=wrap;html=1;rounded=0;shadow=0;glass=0;sketch=0;" parent="1" vertex="1">
                    <mxGeometry x="-42.5" y="122.5" width="80" height="80" as="geometry"/>
                </mxCell>
                <mxCell id="3" value="1" style="text;html=1;align=center;verticalAlign=middle;resizable=0;points=[];autosize=1;" parent="1" vertex="1">
                    <mxGeometry x="2.5" y="202.5" width="20" height="20" as="geometry"/>
                </mxCell>
                <mxCell id="7" value="" style="shape=link;html=1;rounded=0;exitX=0.5;exitY=0;exitDx=0;exitDy=0;entryX=1;entryY=1;entryDx=0;entryDy=0;" parent="1" source="2" target="l9egmBFNPaogetp_7aR3-65" edge="1">
                    <mxGeometry relative="1" as="geometry">
                        <mxPoint x="-16.960000000000036" y="458.98" as="sourcePoint"/>
                        <mxPoint x="-15" y="350" as="targetPoint"/>
                    </mxGeometry>
                </mxCell>
                <mxCell id="8" value="1" style="text;html=1;align=center;verticalAlign=middle;resizable=0;points=[];autosize=1;" parent="1" vertex="1">
                    <mxGeometry x="12.5" y="122.5" width="20" height="20" as="geometry"/>
                </mxCell>
                <mxCell id="15" value="maintains" style="rhombus;whiteSpace=wrap;html=1;rounded=0;shadow=0;glass=0;sketch=0;" parent="1" vertex="1">
                    <mxGeometry x="535" y="457" width="80" height="80" as="geometry"/>
                </mxCell>
                <mxCell id="17" value="" style="endArrow=none;html=1;exitX=1;exitY=0.25;exitDx=0;exitDy=0;entryX=0;entryY=0.5;entryDx=0;entryDy=0;" parent="1" source="l9egmBFNPaogetp_7aR3-48" target="15" edge="1">
                    <mxGeometry width="50" height="50" relative="1" as="geometry">
                        <mxPoint x="15" y="460" as="sourcePoint"/>
                        <mxPoint x="265" y="520" as="targetPoint"/>
                    </mxGeometry>
                </mxCell>
                <mxCell id="19" value="" style="endArrow=none;html=1;exitX=1;exitY=0.5;exitDx=0;exitDy=0;entryX=0.008;entryY=0.95;entryDx=0;entryDy=0;entryPerimeter=0;" parent="1" source="15" target="l9egmBFNPaogetp_7aR3-1" edge="1">
                    <mxGeometry width="50" height="50" relative="1" as="geometry">
                        <mxPoint x="280" y="385" as="sourcePoint"/>
                        <mxPoint x="540" y="270" as="targetPoint"/>
                    </mxGeometry>
                </mxCell>
                <mxCell id="20" value="" style="endArrow=none;html=1;exitX=1;exitY=0.5;exitDx=0;exitDy=0;entryX=0;entryY=0.5;entryDx=0;entryDy=0;" parent="1" source="l9egmBFNPaogetp_7aR3-73" target="l9egmBFNPaogetp_7aR3-1" edge="1">
                    <mxGeometry width="50" height="50" relative="1" as="geometry">
                        <mxPoint x="380" y="450" as="sourcePoint"/>
                        <mxPoint x="550.96" y="257" as="targetPoint"/>
                    </mxGeometry>
                </mxCell>
                <mxCell id="21" value="n" style="text;html=1;align=center;verticalAlign=middle;resizable=0;points=[];autosize=1;" parent="1" vertex="1">
                    <mxGeometry x="624" y="487" width="20" height="20" as="geometry"/>
                </mxCell>
                <mxCell id="22" value="m" style="text;html=1;align=center;verticalAlign=middle;resizable=0;points=[];autosize=1;" parent="1" vertex="1">
                    <mxGeometry x="510" y="497" width="30" height="20" as="geometry"/>
                </mxCell>
                <mxCell id="23" value="maintain_id" style="ellipse;whiteSpace=wrap;html=1;" parent="1" vertex="1">
                    <mxGeometry x="639" y="529" width="120" height="56" as="geometry"/>
                </mxCell>
                <mxCell id="26" value="" style="endArrow=none;html=1;exitX=1;exitY=1;exitDx=0;exitDy=0;entryX=0;entryY=0.5;entryDx=0;entryDy=0;" parent="1" source="15" target="23" edge="1">
                    <mxGeometry width="50" height="50" relative="1" as="geometry">
                        <mxPoint x="305.5" y="555" as="sourcePoint"/>
                        <mxPoint x="645.5" y="685" as="targetPoint"/>
                    </mxGeometry>
                </mxCell>
                <mxCell id="27" value="has" style="rhombus;whiteSpace=wrap;html=1;" parent="1" vertex="1">
                    <mxGeometry x="484" y="736" width="80" height="80" as="geometry"/>
                </mxCell>
                <mxCell id="28" value="" style="endArrow=none;html=1;entryX=0;entryY=0.5;entryDx=0;entryDy=0;exitX=1;exitY=0.25;exitDx=0;exitDy=0;" parent="1" source="l9egmBFNPaogetp_7aR3-22" target="27" edge="1">
                    <mxGeometry width="50" height="50" relative="1" as="geometry">
                        <mxPoint x="370" y="791" as="sourcePoint"/>
                        <mxPoint x="420" y="741" as="targetPoint"/>
                    </mxGeometry>
                </mxCell>
                <mxCell id="29" value="" style="endArrow=none;html=1;entryX=0;entryY=0.5;entryDx=0;entryDy=0;exitX=1;exitY=0.5;exitDx=0;exitDy=0;" parent="1" source="27" target="l9egmBFNPaogetp_7aR3-76" edge="1">
                    <mxGeometry width="50" height="50" relative="1" as="geometry">
                        <mxPoint x="564" y="745" as="sourcePoint"/>
                        <mxPoint x="634.7106781186548" y="695" as="targetPoint"/>
                    </mxGeometry>
                </mxCell>
                <mxCell id="31" value="1" style="text;html=1;align=center;verticalAlign=middle;resizable=0;points=[];autosize=1;" parent="1" vertex="1">
                    <mxGeometry x="470" y="756" width="20" height="20" as="geometry"/>
                </mxCell>
                <mxCell id="32" value="n" style="text;html=1;align=center;verticalAlign=middle;resizable=0;points=[];autosize=1;" parent="1" vertex="1">
                    <mxGeometry x="560" y="756" width="20" height="20" as="geometry"/>
                </mxCell>
                <mxCell id="33" value="" style="endArrow=none;html=1;entryX=0.5;entryY=1;entryDx=0;entryDy=0;exitX=0.5;exitY=0;exitDx=0;exitDy=0;" parent="1" source="l9egmBFNPaogetp_7aR3-48" target="2" edge="1">
                    <mxGeometry width="50" height="50" relative="1" as="geometry">
                        <mxPoint x="-60" y="430" as="sourcePoint"/>
                        <mxPoint x="-10" y="380" as="targetPoint"/>
                    </mxGeometry>
                </mxCell>
            </root>
        </mxGraphModel>
    </diagram>
</mxfile>